<svg id="Capa_1" data-name="Capa 1" xmlns="http://www.w3.org/2000/svg" viewBox="0 0 1022.27 1014.98"><defs><style>.cls-1{fill:#8d54fe;}</style></defs><path class="cls-1" d="M895.8,471.65c-70.62,1.89-91.16,3-136.41,7.56C639.32,491.43,554.52,605.35,572.21,728.49c16.33,113.64,134.18,196,250.63,175,17.34-3.12,34.51-8.41,52-9.53,34.22-2.21,65.73,4.33,78,42.29,12.33,38.26-3.75,67-36.83,84.91-59.68,32.29-125.72,33.42-189.51,23.3-168.81-26.77-292.51-169.11-296.78-334.7-4.53-175.79,109.39-329,278-365.07,99.5-21.26,202-16,303.33-17.24a652.24,652.24,0,0,1,74.82,3.08c51.71,5.27,80.51,33.93,80.52,71.16,0,38.24-30.14,61.12-76.65,63.23C1025.11,467.87,963.25,471.8,895.8,471.65Z" transform="translate(-429.52 -35.15)"/><path class="cls-1" d="M985.52,613.63c70.62-1.89,91.15-3,136.41-7.56C1242,593.84,1326.79,479.93,1309.1,356.79c-16.32-113.64-134.18-196-250.63-175-17.34,3.12-34.5,8.41-52,9.54-34.22,2.21-65.74-4.33-78-42.29-12.33-38.27,3.75-67,36.83-84.91,59.68-32.29,125.72-33.42,189.52-23.3,168.8,26.77,292.5,169.1,296.77,334.7,4.54,175.78-109.38,329-278,365.07-99.49,21.26-202,16-303.33,17.23a650.08,650.08,0,0,1-74.82-3.07C743.76,749.45,715,720.78,715,683.55c0-38.23,30.14-61.11,76.65-63.22C856.2,617.4,918.06,613.48,985.52,613.63Z" transform="translate(-429.52 -35.15)"/></svg>